<svg width="78" height="79" viewBox="0 0 78 79" fill="none" xmlns="http://www.w3.org/2000/svg">
<circle cx="39" cy="39.0491" r="38" stroke="#F5DF4D" stroke-width="2"/>
<path d="M38.6517 56.1572H17.5366C17.1703 56.1572 17.0037 55.9574 17.0037 55.5577V21.5204C16.9963 21.4656 17 21.4099 17.0145 21.3565C17.029 21.3031 17.0541 21.2532 17.0882 21.2097C17.1224 21.1662 17.165 21.1301 17.2134 21.1033C17.2618 21.0766 17.3151 21.0599 17.3701 21.0541H24.031C24.0727 21.0465 24.1155 21.0475 24.1567 21.0569C24.198 21.0663 24.237 21.084 24.2712 21.109C24.3055 21.1339 24.3343 21.1655 24.356 21.2018C24.3777 21.2382 24.3917 21.2786 24.3974 21.3206V49.3964H39.7841C40.1171 49.3964 40.2171 49.5629 40.1505 49.8626L39.1846 55.6576C39.1794 55.7341 39.1591 55.8089 39.1248 55.8775C39.0905 55.9461 39.0429 56.0072 38.9848 56.0573C38.8871 56.1249 38.7705 56.1599 38.6517 56.1572V56.1572Z" fill="#F5DF4D"/>
<path d="M43.9805 29.5135H49.8088C49.9666 29.5173 50.1193 29.5709 50.2449 29.6666C50.3705 29.7623 50.4626 29.8952 50.5082 30.0464C50.6459 30.282 50.7364 30.5422 50.7746 30.8124C50.8412 31.1454 50.9078 31.5118 50.9411 31.8448C50.9744 32.1779 51.0078 32.6108 51.0078 33.0438C52.0078 31.8764 53.2162 30.9051 54.5713 30.1796C56.0929 29.3548 57.8034 28.9415 59.5337 28.9806C59.5885 28.9732 59.6443 28.9769 59.6976 28.9914C59.751 29.0059 59.8009 29.031 59.8444 29.0651C59.8879 29.0993 59.9241 29.1419 59.9508 29.1903C59.9775 29.2387 59.9943 29.292 60 29.347V35.9746C60 36.2411 59.8335 36.341 59.4671 36.341C57.3087 36.2117 55.1506 36.5999 53.1726 37.4733C52.4979 37.762 51.8868 38.1807 51.3741 38.7056V55.6909C51.3741 56.024 51.2409 56.1572 50.9411 56.1572H44.4467C44.3853 56.1676 44.3224 56.1653 44.2619 56.1506C44.2013 56.1359 44.1444 56.1091 44.0946 56.0717C44.0447 56.0343 44.003 55.9872 43.972 55.9332C43.9409 55.8792 43.9211 55.8194 43.9139 55.7575V37.1736C43.9139 36.3743 43.9139 35.5417 43.8806 34.6757C43.8473 33.8098 43.8473 32.9439 43.814 32.078C43.7807 31.3453 43.714 30.6126 43.6141 29.8799C43.6053 29.8405 43.6043 29.7998 43.6113 29.76C43.6182 29.7203 43.6329 29.6823 43.6546 29.6483C43.6763 29.6142 43.7044 29.5848 43.7375 29.5617C43.7706 29.5386 43.8079 29.5222 43.8473 29.5135C43.8806 29.4802 43.9139 29.4802 43.9805 29.5135V29.5135Z" fill="#F5DF4D"/>
</svg>
